{
  "accessors": [
    {
      "bufferView": 2,
      "componentType": 5126,
      "count": 3068,
      "max": [
        0.08418942242860794,
        0.4000000059604645,
        1.0
      ],
      "min": [
        -0.08418942242860794,
        -0.4000000059604645,
        -1.0
      ],
      "type": "VEC3"
    },
    {
      "bufferView": 2,
      "byteOffset": 36816,
      "componentType": 5126,
      "count": 3068,
      "max": [
        1.0,
        1.0,
        1.0
      ],
      "min": [
        -1.0,
        -1.0,
        -1.0
      ],
      "type": "VEC3"
    },
    {
      "bufferView": 1,
      "componentType": 5126,
      "count": 3068,
      "max": [
        0.32319384813308716,
        0.9334982633590698
      ],
      "min": [
        0.081449955701828,
        0.05269301310181618
      ],
      "type": "VEC2"
    },
    {
      "bufferView": 0,
      "componentType": 5125,
      "count": 4968,
      "type": "SCALAR"
    },
    {
      "bufferView": 2,
      "byteOffset": 73632,
      "componentType": 5126,
      "count": 2998,
      "max": [
        2.80631422996521,
        1.0,
        1.0
      ],
      "min": [
        -2.80631422996521,
        -1.0,
        -1.0
      ],
      "type": "VEC3"
    },
    {
      "bufferView": 2,
      "byteOffset": 109608,
      "componentType": 5126,
      "count": 2998,
      "max": [
        1.0,
        1.0,
        1.0
      ],
      "min": [
        -1.0,
        -1.0,
        -1.0
      ],
      "type": "VEC3"
    },
    {
      "bufferView": 1,
      "byteOffset": 24544,
      "componentType": 5126,
      "count": 2998,
      "max": [
        0.4661308228969574,
        0.9575978517532349
      ],
      "min": [
        0.45399072766304016,
        0.07137827575206757
      ],
      "type": "VEC2"
    },
    {
      "bufferView": 0,
      "byteOffset": 19872,
      "componentType": 5125,
      "count": 4884,
      "type": "SCALAR"
    },
    {
      "bufferView": 2,
      "byteOffset": 145584,
      "componentType": 5126,
      "count": 2894,
      "max": [
        2.80631422996521,
        1.0,
        1.0
      ],
      "min": [
        -2.80631422996521,
        -1.0,
        -1.0
      ],
      "type": "VEC3"
    },
    {
      "bufferView": 2,
      "byteOffset": 180312,
      "componentType": 5126,
      "count": 2894,
      "max": [
        1.0,
        1.0,
        1.0
      ],
      "min": [
        -1.0,
        -1.0,
        -1.0
      ],
      "type": "VEC3"
    },
    {
      "bufferView": 1,
      "byteOffset": 48528,
      "componentType": 5126,
      "count": 2894,
      "max": [
        0.34371262788772583,
        0.9426497220993042
      ],
      "min": [
        0.07397589087486267,
        0.05269301310181618
      ],
      "type": "VEC2"
    },
    {
      "bufferView": 0,
      "byteOffset": 39408,
      "componentType": 5125,
      "count": 4554,
      "type": "SCALAR"
    },
    {
      "bufferView": 2,
      "byteOffset": 215040,
      "componentType": 5126,
      "count": 3516,
      "max": [
        0.08418942242860794,
        0.4000000059604645,
        1.0
      ],
      "min": [
        -0.08418942242860794,
        -0.4000000059604645,
        -1.0
      ],
      "type": "VEC3"
    },
    {
      "bufferView": 2,
      "byteOffset": 257232,
      "componentType": 5126,
      "count": 3516,
      "max": [
        1.0,
        1.0,
        1.0
      ],
      "min": [
        -1.0,
        -1.0,
        -1.0
      ],
      "type": "VEC3"
    },
    {
      "bufferView": 1,
      "byteOffset": 71680,
      "componentType": 5126,
      "count": 3516,
      "max": [
        0.8413194417953491,
        0.9762831330299377
      ],
      "min": [
        0.329587459564209,
        0.04895595833659172
      ],
      "type": "VEC2"
    },
    {
      "bufferView": 0,
      "byteOffset": 57624,
      "componentType": 5125,
      "count": 5610,
      "type": "SCALAR"
    },
    {
      "bufferView": 2,
      "byteOffset": 299424,
      "componentType": 5126,
      "count": 3698,
      "max": [
        0.08418942242860794,
        0.4000000059604645,
        1.0
      ],
      "min": [
        -0.08418942242860794,
        -0.4000000059604645,
        -1.0
      ],
      "type": "VEC3"
    },
    {
      "bufferView": 2,
      "byteOffset": 343800,
      "componentType": 5126,
      "count": 3698,
      "max": [
        1.0,
        1.0,
        1.0
      ],
      "min": [
        -1.0,
        -1.0,
        -1.0
      ],
      "type": "VEC3"
    },
    {
      "bufferView": 1,
      "byteOffset": 99808,
      "componentType": 5126,
      "count": 3698,
      "max": [
        0.32319384813308716,
        0.942649781703949
      ],
      "min": [
        0.07397587597370148,
        0.05269301310181618
      ],
      "type": "VEC2"
    },
    {
      "bufferView": 0,
      "byteOffset": 80064,
      "componentType": 5125,
      "count": 5820,
      "type": "SCALAR"
    },
    {
      "bufferView": 2,
      "byteOffset": 388176,
      "componentType": 5126,
      "count": 2786,
      "max": [
        2.80631422996521,
        1.0,
        1.0
      ],
      "min": [
        -2.80631422996521,
        -1.0,
        -1.0
      ],
      "type": "VEC3"
    },
    {
      "bufferView": 2,
      "byteOffset": 421608,
      "componentType": 5126,
      "count": 2786,
      "max": [
        1.0,
        1.0,
        1.0
      ],
      "min": [
        -1.0,
        -1.0,
        -1.0
      ],
      "type": "VEC3"
    },
    {
      "bufferView": 1,
      "byteOffset": 129392,
      "componentType": 5126,
      "count": 2786,
      "max": [
        0.32319384813308716,
        0.9426496028900146
      ],
      "min": [
        0.07397589087486267,
        0.05269301310181618
      ],
      "type": "VEC2"
    },
    {
      "bufferView": 0,
      "byteOffset": 103344,
      "componentType": 5125,
      "count": 4380,
      "type": "SCALAR"
    }
  ],
  "asset": {
    "extras": {
      "author": "Alstra Infinite (https://sketchfab.com/alstrainfinite)",
      "license": "CC-BY-SA-4.0 (http://creativecommons.org/licenses/by-sa/4.0/)",
      "source": "https://sketchfab.com/3d-models/doors-asset-384190ed031544f3a6de2a86ccd4dfa6",
      "title": "Doors - Asset"
    },
    "generator": "Sketchfab-12.66.0",
    "version": "2.0"
  },
  "bufferViews": [
    {
      "buffer": 0,
      "byteLength": 120864,
      "name": "floatBufferViews",
      "target": 34963
    },
    {
      "buffer": 0,
      "byteLength": 151680,
      "byteOffset": 120864,
      "byteStride": 8,
      "name": "floatBufferViews",
      "target": 34962
    },
    {
      "buffer": 0,
      "byteLength": 455040,
      "byteOffset": 272544,
      "byteStride": 12,
      "name": "floatBufferViews",
      "target": 34962
    }
  ],
  "buffers": [
    {
      "byteLength": 727584,
      "uri": "scene.bin"
    }
  ],
  "images": [
    {
      "uri": "textures/Material_baseColor.png"
    }
  ],
  "materials": [
    {
      "doubleSided": true,
      "name": "Material",
      "pbrMetallicRoughness": {
        "baseColorTexture": {
          "index": 0
        },
        "metallicFactor": 0.2692376678887815,
        "roughnessFactor": 0.8040408205773457
      }
    }
  ],
  "meshes": [
    {
      "name": "Door.001_Material_0",
      "primitives": [
        {
          "attributes": {
            "NORMAL": 1,
            "POSITION": 0,
            "TEXCOORD_0": 2
          },
          "indices": 3,
          "material": 0,
          "mode": 4
        }
      ]
    },
    {
      "name": "Door_Material_0",
      "primitives": [
        {
          "attributes": {
            "NORMAL": 5,
            "POSITION": 4,
            "TEXCOORD_0": 6
          },
          "indices": 7,
          "material": 0,
          "mode": 4
        }
      ]
    },
    {
      "name": "Door.002_Material_0",
      "primitives": [
        {
          "attributes": {
            "NORMAL": 9,
            "POSITION": 8,
            "TEXCOORD_0": 10
          },
          "indices": 11,
          "material": 0,
          "mode": 4
        }
      ]
    },
    {
      "name": "Door.003_Material_0",
      "primitives": [
        {
          "attributes": {
            "NORMAL": 13,
            "POSITION": 12,
            "TEXCOORD_0": 14
          },
          "indices": 15,
          "material": 0,
          "mode": 4
        }
      ]
    },
    {
      "name": "Door.004_Material_0",
      "primitives": [
        {
          "attributes": {
            "NORMAL": 17,
            "POSITION": 16,
            "TEXCOORD_0": 18
          },
          "indices": 19,
          "material": 0,
          "mode": 4
        }
      ]
    },
    {
      "name": "Door.005_Material_0",
      "primitives": [
        {
          "attributes": {
            "NORMAL": 21,
            "POSITION": 20,
            "TEXCOORD_0": 22
          },
          "indices": 23,
          "material": 0,
          "mode": 4
        }
      ]
    }
  ],
  "nodes": [
    {
      "children": [
        1
      ],
      "matrix": [
        0.010785553604364395,
        0.0,
        0.0,
        0.0,
        0.0,
        2.3948739889788395e-18,
        -0.010785553604364395,
        0.0,
        0.0,
        0.010785553604364395,
        2.3948739889788395e-18,
        0.0,
        0.0,
        0.0,
        0.0,
        1.0
      ],
      "name": "Sketchfab_model"
    },
    {
      "children": [
        2
      ],
      "matrix": [
        1.0,
        0.0,
        0.0,
        0.0,
        0.0,
        0.0,
        1.0,
        0.0,
        0.0,
        -1.0,
        0.0,
        0.0,
        0.0,
        0.0,
        0.0,
        1.0
      ],
      "name": "Doors.fbx"
    },
    {
      "children": [
        3,
        5,
        7,
        9,
        11,
        13
      ],
      "name": "RootNode"
    },
    {
      "children": [
        4
      ],
      "matrix": [
        -99.99999999999241,
        1.2246465878873718e-14,
        3.8941437775530106e-05,
        0.0,
        3.894143777553e-05,
        7.549789982075339e-06,
        99.99999999999213,
        0.0,
        -2.9277502948264183e-12,
        99.9999999999997,
        -7.549789970973109e-06,
        0.0,
        -8.742277714191005e-06,
        100.0,
        100.0,
        1.0
      ],
      "name": "Door.001"
    },
    {
      "mesh": 0,
      "name": "Door.001_Material_0"
    },
    {
      "children": [
        6
      ],
      "matrix": [
        -2.999999999999772,
        3.6739397636621155e-16,
        1.1682431332659033e-06,
        0.0,
        1.5576575110211998e-05,
        3.0199159928301356e-06,
        39.99999999999685,
        0.0,
        -2.9277502948264183e-12,
        99.9999999999997,
        -7.549789970973109e-06,
        0.0,
        0.0,
        100.0,
        200.0,
        1.0
      ],
      "name": "Door"
    },
    {
      "mesh": 1,
      "name": "Door_Material_0"
    },
    {
      "children": [
        8
      ],
      "matrix": [
        -2.999999999999772,
        3.6739397636621155e-16,
        1.1682431332659033e-06,
        0.0,
        1.5576575110211998e-05,
        3.0199159928301356e-06,
        39.99999999999685,
        0.0,
        -2.9277502948264183e-12,
        99.9999999999997,
        -7.549789970973109e-06,
        0.0,
        8.742277714191005e-06,
        100.0,
        300.0,
        1.0
      ],
      "name": "Door.002"
    },
    {
      "mesh": 2,
      "name": "Door.002_Material_0"
    },
    {
      "children": [
        10
      ],
      "matrix": [
        100.0,
        0.0,
        0.0,
        0.0,
        0.0,
        -1.629206793918314e-05,
        -99.99999999999868,
        0.0,
        0.0,
        99.99999999999868,
        -1.629206793918314e-05,
        0.0,
        0.0,
        100.0,
        -100.0,
        1.0
      ],
      "name": "Door.003"
    },
    {
      "mesh": 3,
      "name": "Door.003_Material_0"
    },
    {
      "children": [
        12
      ],
      "matrix": [
        100.0,
        0.0,
        0.0,
        0.0,
        0.0,
        -1.629206793918314e-05,
        -99.99999999999868,
        0.0,
        0.0,
        99.99999999999868,
        -1.629206793918314e-05,
        0.0,
        0.0,
        100.0,
        -200.0,
        1.0
      ],
      "name": "Door.004"
    },
    {
      "mesh": 4,
      "name": "Door.004_Material_0"
    },
    {
      "children": [
        14
      ],
      "matrix": [
        3.0,
        0.0,
        0.0,
        0.0,
        0.0,
        -6.5168271756732565e-06,
        -39.999999999999474,
        0.0,
        0.0,
        99.99999999999868,
        -1.629206793918314e-05,
        0.0,
        0.0,
        100.0,
        -300.0,
        1.0
      ],
      "name": "Door.005"
    },
    {
      "mesh": 5,
      "name": "Door.005_Material_0"
    }
  ],
  "samplers": [
    {
      "magFilter": 9729,
      "minFilter": 9987,
      "wrapS": 10497,
      "wrapT": 10497
    }
  ],
  "scene": 0,
  "scenes": [
    {
      "name": "Sketchfab_Scene",
      "nodes": [
        0
      ]
    }
  ],
  "textures": [
    {
      "sampler": 0,
      "source": 0
    }
  ]
}
