{
  "accessors": [
    {
      "bufferView": 2,
      "componentType": 5126,
      "count": 866,
      "max": [
        0.24199998378753662,
        1.564000129699707,
        0.0
      ],
      "min": [
        -0.2380000352859497,
        -1.2360000610351563,
        -0.13624754548072815
      ],
      "type": "VEC3"
    },
    {
      "bufferView": 2,
      "byteOffset": 10392,
      "componentType": 5126,
      "count": 866,
      "max": [
        0.9999926686286926,
        0.9977074265480042,
        1.0
      ],
      "min": [
        -0.9999926686286926,
        -0.9977071285247803,
        -1.0
      ],
      "type": "VEC3"
    },
    {
      "bufferView": 1,
      "componentType": 5126,
      "count": 866,
      "max": [
        1.0,
        0.0
      ],
      "min": [
        0.0,
        0.0
      ],
      "type": "VEC2"
    },
    {
      "bufferView": 0,
      "componentType": 5125,
      "count": 1440,
      "type": "SCALAR"
    },
    {
      "bufferView": 2,
      "byteOffset": 20784,
      "componentType": 5126,
      "count": 73,
      "max": [
        1.5779006481170654,
        0.0752229243516922,
        1.5779006481170654
      ],
      "min": [
        -1.5779006481170654,
        -0.0752229243516922,
        -1.5779006481170654
      ],
      "type": "VEC3"
    },
    {
      "bufferView": 2,
      "byteOffset": 21660,
      "componentType": 5126,
      "count": 73,
      "max": [
        0.730056643486023,
        0.6898663640022278,
        0.7300568222999573
      ],
      "min": [
        -0.730056643486023,
        -0.6898663640022278,
        -0.7300568222999573
      ],
      "type": "VEC3"
    },
    {
      "bufferView": 1,
      "byteOffset": 6928,
      "componentType": 5126,
      "count": 73,
      "max": [
        0.875,
        0.75
      ],
      "min": [
        0.125,
        0.0
      ],
      "type": "VEC2"
    },
    {
      "bufferView": 1,
      "byteOffset": 7512,
      "componentType": 5126,
      "count": 73,
      "max": [
        0.875,
        0.75
      ],
      "min": [
        0.125,
        0.0
      ],
      "type": "VEC2"
    },
    {
      "bufferView": 0,
      "byteOffset": 5760,
      "componentType": 5125,
      "count": 210,
      "type": "SCALAR"
    },
    {
      "bufferView": 2,
      "byteOffset": 22536,
      "componentType": 5126,
      "count": 42,
      "max": [
        1.5779006481170654,
        -0.0752229243516922,
        1.5779006481170654
      ],
      "min": [
        -1.5779006481170654,
        -0.0752229243516922,
        -1.5779006481170654
      ],
      "type": "VEC3"
    },
    {
      "bufferView": 2,
      "byteOffset": 23040,
      "componentType": 5126,
      "count": 42,
      "max": [
        0.730056643486023,
        -0.6735332012176514,
        0.7300568222999573
      ],
      "min": [
        -0.730056643486023,
        -1.0,
        -0.7300568222999573
      ],
      "type": "VEC3"
    },
    {
      "bufferView": 1,
      "byteOffset": 8096,
      "componentType": 5126,
      "count": 42,
      "max": [
        0.625,
        1.0
      ],
      "min": [
        0.375,
        0.75
      ],
      "type": "VEC2"
    },
    {
      "bufferView": 0,
      "byteOffset": 6600,
      "componentType": 5125,
      "count": 114,
      "type": "SCALAR"
    },
    {
      "bufferView": 2,
      "byteOffset": 23544,
      "componentType": 5126,
      "count": 24,
      "max": [
        1.52273690700531,
        0.06789781153202057,
        1.52273690700531
      ],
      "min": [
        -1.52273690700531,
        -0.1287451833486557,
        -1.52273690700531
      ],
      "type": "VEC3"
    },
    {
      "bufferView": 2,
      "byteOffset": 23832,
      "componentType": 5126,
      "count": 24,
      "max": [
        0.8164966106414795,
        0.9045340418815613,
        0.8164966106414795
      ],
      "min": [
        -0.8164966106414795,
        -1.0,
        -0.8164966106414795
      ],
      "type": "VEC3"
    },
    {
      "bufferView": 1,
      "byteOffset": 8432,
      "componentType": 5126,
      "count": 24,
      "max": [
        0.6176000237464905,
        0.9926000237464905
      ],
      "min": [
        0.3824000060558319,
        0.7573999762535095
      ],
      "type": "VEC2"
    },
    {
      "bufferView": 0,
      "byteOffset": 7056,
      "componentType": 5125,
      "count": 120,
      "type": "SCALAR"
    },
    {
      "bufferView": 2,
      "byteOffset": 24120,
      "componentType": 5126,
      "count": 130,
      "max": [
        1.0,
        1.0,
        1.0
      ],
      "min": [
        -1.0,
        -1.0,
        -1.0
      ],
      "type": "VEC3"
    },
    {
      "bufferView": 2,
      "byteOffset": 25680,
      "componentType": 5126,
      "count": 130,
      "max": [
        0.7278876900672913,
        0.7278876900672913,
        0.6856964826583862
      ],
      "min": [
        -0.7278876900672913,
        -0.7278876900672913,
        -0.685696542263031
      ],
      "type": "VEC3"
    },
    {
      "bufferView": 1,
      "byteOffset": 8624,
      "componentType": 5126,
      "count": 130,
      "max": [
        1.0,
        1.0
      ],
      "min": [
        0.0,
        0.01000000536441803
      ],
      "type": "VEC2"
    },
    {
      "bufferView": 1,
      "byteOffset": 9664,
      "componentType": 5126,
      "count": 130,
      "max": [
        1.0,
        1.0
      ],
      "min": [
        0.0,
        0.01000000536441803
      ],
      "type": "VEC2"
    },
    {
      "bufferView": 0,
      "byteOffset": 7536,
      "componentType": 5125,
      "count": 372,
      "type": "SCALAR"
    }
  ],
  "asset": {
    "extras": {
      "author": "suicidalkid (https://sketchfab.com/suicidalkid)",
      "license": "CC-BY-4.0 (http://creativecommons.org/licenses/by/4.0/)",
      "source": "https://sketchfab.com/3d-models/warning-road-sign-e1b8e373eb244f08bd79278936c606bf",
      "title": "Warning Road Sign"
    },
    "generator": "Sketchfab-16.54.0",
    "version": "2.0"
  },
  "bufferViews": [
    {
      "buffer": 0,
      "byteLength": 9024,
      "name": "floatBufferViews",
      "target": 34963
    },
    {
      "buffer": 0,
      "byteLength": 10704,
      "byteOffset": 9024,
      "byteStride": 8,
      "name": "floatBufferViews",
      "target": 34962
    },
    {
      "buffer": 0,
      "byteLength": 27240,
      "byteOffset": 19728,
      "byteStride": 12,
      "name": "floatBufferViews",
      "target": 34962
    }
  ],
  "buffers": [
    {
      "byteLength": 46968,
      "uri": "scene.bin"
    }
  ],
  "images": [
    {
      "uri": "textures/metal_karat_baseColor.jpeg"
    }
  ],
  "materials": [
    {
      "doubleSided": true,
      "name": "hitam",
      "pbrMetallicRoughness": {
        "baseColorFactor": [
          0.0,
          0.0,
          0.0,
          1.0
        ],
        "metallicFactor": 0.0,
        "roughnessFactor": 0.8727704648388395
      }
    },
    {
      "doubleSided": true,
      "name": "metal_karat",
      "pbrMetallicRoughness": {
        "baseColorTexture": {
          "index": 0
        },
        "metallicFactor": 0.4612450699200317,
        "roughnessFactor": 0.8211145618000169
      }
    },
    {
      "doubleSided": true,
      "name": "Material.004",
      "pbrMetallicRoughness": {
        "baseColorFactor": [
          1.0,
          0.947038,
          0.0,
          1.0
        ],
        "metallicFactor": 0.0,
        "roughnessFactor": 0.7645488819320132
      }
    }
  ],
  "meshes": [
    {
      "name": "Text_hitam_0",
      "primitives": [
        {
          "attributes": {
            "NORMAL": 1,
            "POSITION": 0,
            "TEXCOORD_0": 2
          },
          "indices": 3,
          "material": 0,
          "mode": 4
        }
      ]
    },
    {
      "name": "simpang 4.001_metal karat_0",
      "primitives": [
        {
          "attributes": {
            "NORMAL": 5,
            "POSITION": 4,
            "TEXCOORD_0": 6,
            "TEXCOORD_1": 7
          },
          "indices": 8,
          "material": 1,
          "mode": 4
        }
      ]
    },
    {
      "name": "simpang 4.001_Material.004_0",
      "primitives": [
        {
          "attributes": {
            "NORMAL": 10,
            "POSITION": 9,
            "TEXCOORD_0": 11
          },
          "indices": 12,
          "material": 2,
          "mode": 4
        }
      ]
    },
    {
      "name": "simpang 4.001_hitam_0",
      "primitives": [
        {
          "attributes": {
            "NORMAL": 14,
            "POSITION": 13,
            "TEXCOORD_0": 15
          },
          "indices": 16,
          "material": 0,
          "mode": 4
        }
      ]
    },
    {
      "name": "tiang.005_metal karat_0",
      "primitives": [
        {
          "attributes": {
            "NORMAL": 18,
            "POSITION": 17,
            "TEXCOORD_0": 19,
            "TEXCOORD_1": 20
          },
          "indices": 21,
          "material": 1,
          "mode": 4
        }
      ]
    }
  ],
  "nodes": [
    {
      "children": [
        1
      ],
      "matrix": [
        0.25655248761177063,
        0.0,
        0.0,
        0.0,
        0.0,
        5.69660957542896e-17,
        -0.25655248761177063,
        0.0,
        0.0,
        0.25655248761177063,
        5.69660957542896e-17,
        0.0,
        0.0,
        0.0,
        0.0,
        1.0
      ],
      "name": "Sketchfab_model"
    },
    {
      "children": [
        2
      ],
      "matrix": [
        0.009999999776482582,
        0.0,
        0.0,
        0.0,
        0.0,
        0.0,
        0.009999999776482582,
        0.0,
        0.0,
        -0.009999999776482582,
        0.0,
        0.0,
        0.0,
        0.0,
        0.0,
        1.0
      ],
      "name": "918be710a04f42af9ac015d9fd25e122.fbx"
    },
    {
      "children": [
        3,
        5,
        9
      ],
      "name": "RootNode"
    },
    {
      "children": [
        4
      ],
      "matrix": [
        72.46424102783203,
        0.0,
        0.0,
        0.0,
        0.0,
        72.46424102783196,
        3.1675123190266304e-06,
        0.0,
        0.0,
        -3.1675123190266304e-06,
        72.46424102783196,
        0.0,
        -1354.4222412109375,
        829.14111328125,
        33.26533126831055,
        1.0
      ],
      "name": "Text"
    },
    {
      "mesh": 0,
      "name": "Text_hitam_0"
    },
    {
      "children": [
        6,
        7,
        8
      ],
      "matrix": [
        100.0,
        0.0,
        0.0,
        0.0,
        -0.0,
        -1.629206793918314e-05,
        -99.99999999999868,
        0.0,
        0.0,
        99.99999999999868,
        -1.629206793918314e-05,
        0.0,
        -1354.8253173828125,
        841.7117919921875,
        18.904766082763672,
        1.0
      ],
      "name": "simpang 4.001"
    },
    {
      "mesh": 1,
      "name": "simpang 4.001_metal karat_0"
    },
    {
      "mesh": 2,
      "name": "simpang 4.001_Material.004_0"
    },
    {
      "mesh": 3,
      "name": "simpang 4.001_hitam_0"
    },
    {
      "children": [
        10
      ],
      "matrix": [
        14.087974548339844,
        0.0,
        0.0,
        0.0,
        -0.0,
        -2.2952223846703566e-06,
        -14.087974548339657,
        0.0,
        0.0,
        422.63928222655693,
        -6.885667899802754e-05,
        0.0,
        -1354.8253173828125,
        419.7015686035156,
        0.0,
        1.0
      ],
      "name": "tiang.005"
    },
    {
      "mesh": 4,
      "name": "tiang.005_metal karat_0"
    }
  ],
  "samplers": [
    {
      "magFilter": 9729,
      "minFilter": 9987,
      "wrapS": 10497,
      "wrapT": 10497
    }
  ],
  "scene": 0,
  "scenes": [
    {
      "name": "Sketchfab_Scene",
      "nodes": [
        0
      ]
    }
  ],
  "textures": [
    {
      "sampler": 0,
      "source": 0
    }
  ]
}
