{
  "accessors": [
    {
      "bufferView": 2,
      "componentType": 5126,
      "count": 576,
      "max": [
        71.3458023071289,
        27.42227554321289,
        3.421973943710327
      ],
      "min": [
        -71.34579467773438,
        -27.9116153717041,
        -3.421973943710327
      ],
      "type": "VEC3"
    },
    {
      "bufferView": 2,
      "byteOffset": 6912,
      "componentType": 5126,
      "count": 576,
      "max": [
        0.9998772144317627,
        0.9999204874038696,
        0.9999915361404419
      ],
      "min": [
        -0.9998952150344849,
        -0.999891996383667,
        -0.9999945759773254
      ],
      "type": "VEC3"
    },
    {
      "bufferView": 3,
      "componentType": 5126,
      "count": 576,
      "max": [
        0.9998595118522644,
        0.9999530911445618,
        0.9998799562454224,
        1.0
      ],
      "min": [
        -0.382599413394928,
        -0.999983549118042,
        -0.9998739361763,
        1.0
      ],
      "type": "VEC4"
    },
    {
      "bufferView": 1,
      "componentType": 5126,
      "count": 576,
      "max": [
        0.9964339733123779,
        1.0
      ],
      "min": [
        0.0,
        0.0
      ],
      "type": "VEC2"
    },
    {
      "bufferView": 0,
      "componentType": 5125,
      "count": 1944,
      "type": "SCALAR"
    }
  ],
  "asset": {
    "extras": {
      "author": "anastasiao (https://sketchfab.com/anastasiao)",
      "license": "CC-BY-4.0 (http://creativecommons.org/licenses/by/4.0/)",
      "source": "https://sketchfab.com/3d-models/wild-west-theme-saloon-hanging-sign-55cbf15c076543adb4d609133789e654",
      "title": "Wild West Theme Saloon Hanging Sign"
    },
    "generator": "Sketchfab-14.96.0",
    "version": "2.0"
  },
  "bufferViews": [
    {
      "buffer": 0,
      "byteLength": 7776,
      "name": "floatBufferViews",
      "target": 34963
    },
    {
      "buffer": 0,
      "byteLength": 4608,
      "byteOffset": 7776,
      "byteStride": 8,
      "name": "floatBufferViews",
      "target": 34962
    },
    {
      "buffer": 0,
      "byteLength": 13824,
      "byteOffset": 12384,
      "byteStride": 12,
      "name": "floatBufferViews",
      "target": 34962
    },
    {
      "buffer": 0,
      "byteLength": 9216,
      "byteOffset": 26208,
      "byteStride": 16,
      "name": "floatBufferViews",
      "target": 34962
    }
  ],
  "buffers": [
    {
      "byteLength": 35424,
      "uri": "scene.bin"
    }
  ],
  "images": [
    {
      "uri": "textures/HangingSign_baseColor.jpeg"
    },
    {
      "uri": "textures/HangingSign_metallicRoughness.png"
    },
    {
      "uri": "textures/HangingSign_normal.png"
    }
  ],
  "materials": [
    {
      "doubleSided": true,
      "name": "HangingSign",
      "normalTexture": {
        "index": 2
      },
      "occlusionTexture": {
        "index": 1
      },
      "pbrMetallicRoughness": {
        "baseColorTexture": {
          "index": 0
        },
        "metallicRoughnessTexture": {
          "index": 1
        }
      }
    }
  ],
  "meshes": [
    {
      "name": "defaultMaterial",
      "primitives": [
        {
          "attributes": {
            "NORMAL": 1,
            "POSITION": 0,
            "TANGENT": 2,
            "TEXCOORD_0": 3
          },
          "indices": 4,
          "material": 0,
          "mode": 4
        }
      ]
    }
  ],
  "nodes": [
    {
      "children": [
        1
      ],
      "matrix": [
        1.0,
        0.0,
        0.0,
        0.0,
        0.0,
        2.220446049250313e-16,
        -1.0,
        0.0,
        0.0,
        1.0,
        2.220446049250313e-16,
        0.0,
        0.0,
        0.0,
        0.0,
        1.0
      ],
      "name": "Sketchfab_model"
    },
    {
      "children": [
        2
      ],
      "matrix": [
        1.0,
        0.0,
        0.0,
        0.0,
        0.0,
        -4.371139006309477e-08,
        0.999999999999999,
        0.0,
        0.0,
        -0.999999999999999,
        -4.371139006309477e-08,
        0.0,
        0.0,
        0.0,
        0.0,
        1.0
      ],
      "name": "Collada visual scene group"
    },
    {
      "children": [
        3
      ],
      "name": "polySurface919"
    },
    {
      "mesh": 0,
      "name": "defaultMaterial"
    }
  ],
  "samplers": [
    {
      "magFilter": 9729,
      "minFilter": 9987,
      "wrapS": 10497,
      "wrapT": 10497
    }
  ],
  "scene": 0,
  "scenes": [
    {
      "name": "Sketchfab_Scene",
      "nodes": [
        0
      ]
    }
  ],
  "textures": [
    {
      "sampler": 0,
      "source": 0
    },
    {
      "sampler": 0,
      "source": 1
    },
    {
      "sampler": 0,
      "source": 2
    }
  ]
}
